# xmcd CD database file
#
# Track frame offsets:
#	150
#	11986
#	28601
#	43846
#	59692
#	72709
#	94000
#	109739
#	129917
#	148734
#	161751
#
# Disc length: 2370 seconds
#
# Revision: 0
# Processed by: cddbd v1.5.1PL2 Copyright (c) Steve Scherf et al.
# Submitted via: CDex 1.51
#
DISCID=a409400b
DTITLE=Corinne Bailey Rae - Songs
DYEAR=2006
DGENRE=Jazz
TTITLE0=like a star
TTITLE1=enchantment
TTITLE2=put your records on
TTITLE3=till it happens to you
TTITLE4=trouble sleeping
TTITLE5=call me when you get this
TTITLE6=choux pastry heart
TTITLE7=breathless
TTITLE8=i'd like
TTITLE9=butterfly
TTITLE10=seasons change
EXTD=YEAR: 2006
EXTT0=
EXTT1=
EXTT2=
EXTT3=
EXTT4=
EXTT5=
EXTT6=
EXTT7=
EXTT8=
EXTT9=
EXTT10=
PLAYORDER=
